# xmcd
#
# Track frame offsets:
#	150
#	27777
#	43954
#	63283
#	80356
#	104577
#	124369
#	149322
#	176481
#	194774
#	212910
#	235369
#	256570
#	273010
#	292601
#	304916
#	331901
#
# Disc length: 4761 seconds
#
# Revision: 1
# Processed by: cddbd v1.5.1PL0 Copyright (c) Steve Scherf et al.
# Submitted via: EasyCDDAExtractor 7.1.2.1
#
DISCID=f7129711
DTITLE=mixed by Nord Ost Project - Sheffer Fort Traxx - Bottle 14
DYEAR=2005
DGENRE=Techno-Industrial
TTITLE0=Hamburg Sued - Langenhagen
TTITLE1=Reason - Diamand
TTITLE2=The Key, the secret - Phobos and Deimos
TTITLE3=Achtung Spass - Rave Allstars
TTITLE4=Musical Society - Megara vs. DJ Lee
TTITLE5=On a Party Trip (Megara vs. DJ Lee Remix) - Sven-R-G and Bass-T
TTITLE6=Por Que No (Alex Megane vs. Marc van Damme Remix) - United Beats
TTITLE7=Love Lights (Phil Green Remix) - Sander and Pholus
TTITLE8=Hurricane (Rob Mayth Remix) - Alex Megane
TTITLE9=Here I go again (Groove Coverage Extended Version) - Mandaryna
TTITLE10=4 Corners - Michael Urgacz vs. Sean Tyas
TTITLE11=Endless Summer - SiriaTrack 12
TTITLE12=X-Rulez - Ziggy X
TTITLE13=Storm of Light - Neo Cortex
TTITLE14=Luvstruck 2005 - Southside Spinners
TTITLE15=Evolution - Sol Ray and Dark by Design
TTITLE16=Keep turnin Around - Liquid Spill
EXTD=
EXTT0=
EXTT1=
EXTT2=
EXTT3=
EXTT4=
EXTT5=
EXTT6=
EXTT7=
EXTT8=
EXTT9=
EXTT10=
EXTT11=
EXTT12=
EXTT13=
EXTT14=
EXTT15=
EXTT16=
PLAYORDER=
